<?xml version="1.0" encoding="UTF-8"?>
<!DOCTYPE svg PUBLIC "-//W3C//DTD SVG 1.1//EN" "http://www.w3.org/Graphics/SVG/1.1/DTD/svg11.dtd">
<!-- Creator: CorelDRAW X6 -->
<svg xmlns="http://www.w3.org/2000/svg" xml:space="preserve" width="2.26389in" height="2.05555in" version="1.1" style="shape-rendering:geometricPrecision; text-rendering:geometricPrecision; image-rendering:optimizeQuality; fill-rule:evenodd; clip-rule:evenodd"
viewBox="0 0 2264 2056"
 xmlns:xlink="http://www.w3.org/1999/xlink">
 <defs>
  <style type="text/css">
   <![CDATA[
    .fil141 {fill:#00080F;fill-rule:nonzero}
    .fil14 {fill:#00144E;fill-rule:nonzero}
    .fil118 {fill:#001506;fill-rule:nonzero}
    .fil10 {fill:#001657;fill-rule:nonzero}
    .fil116 {fill:#003821;fill-rule:nonzero}
    .fil4 {fill:#004A8B;fill-rule:nonzero}
    .fil106 {fill:#046442;fill-rule:nonzero}
    .fil139 {fill:#0A1116;fill-rule:nonzero}
    .fil135 {fill:#0C151C;fill-rule:nonzero}
    .fil75 {fill:#0E0E0E;fill-rule:nonzero}
    .fil89 {fill:#0F0F20;fill-rule:nonzero}
    .fil132 {fill:#0F1D34;fill-rule:nonzero}
    .fil144 {fill:#0F2333;fill-rule:nonzero}
    .fil119 {fill:#0F875D;fill-rule:nonzero}
    .fil122 {fill:#123B32;fill-rule:nonzero}
    .fil130 {fill:#132744;fill-rule:nonzero}
    .fil120 {fill:#14996A;fill-rule:nonzero}
    .fil133 {fill:#183156;fill-rule:nonzero}
    .fil136 {fill:#192229;fill-rule:nonzero}
    .fil5 {fill:#1A64A5;fill-rule:nonzero}
    .fil8 {fill:#1B2A49;fill-rule:nonzero}
    .fil87 {fill:#1C1C29;fill-rule:nonzero}
    .fil124 {fill:#1C725C;fill-rule:nonzero}
    .fil100 {fill:#201919;fill-rule:nonzero}
    .fil42 {fill:#210000;fill-rule:nonzero}
    .fil73 {fill:#220E3E;fill-rule:nonzero}
    .fil131 {fill:#224579;fill-rule:nonzero}
    .fil7 {fill:#231F20;fill-rule:nonzero}
    .fil78 {fill:#26183A;fill-rule:nonzero}
    .fil79 {fill:#262626;fill-rule:nonzero}
    .fil138 {fill:#262F36;fill-rule:nonzero}
    .fil121 {fill:#263A89;fill-rule:nonzero}
    .fil30 {fill:#283756;fill-rule:nonzero}
    .fil90 {fill:#292936;fill-rule:nonzero}
    .fil65 {fill:#2B114E;fill-rule:nonzero}
    .fil140 {fill:#2B3B48;fill-rule:nonzero}
    .fil59 {fill:#2C2311;fill-rule:nonzero}
    .fil146 {fill:#2D2D2D;fill-rule:nonzero}
    .fil46 {fill:#2D364C;fill-rule:nonzero}
    .fil77 {fill:#301E49;fill-rule:nonzero}
    .fil137 {fill:#333C43;fill-rule:nonzero}
    .fil40 {fill:#354463;fill-rule:nonzero}
    .fil98 {fill:#362929;fill-rule:nonzero}
    .fil96 {fill:#363640;fill-rule:nonzero}
    .fil93 {fill:#363643;fill-rule:nonzero}
    .fil134 {fill:#364A5A;fill-rule:nonzero}
    .fil72 {fill:#372253;fill-rule:nonzero}
    .fil57 {fill:#372E1B;fill-rule:nonzero}
    .fil76 {fill:#373737;fill-rule:nonzero}
    .fil143 {fill:#394A57;fill-rule:nonzero}
    .fil113 {fill:#3A4359;fill-rule:nonzero}
    .fil104 {fill:#3C2F2F;fill-rule:nonzero}
    .fil99 {fill:#3C4F99;fill-rule:nonzero}
    .fil9 {fill:#3E3E3E;fill-rule:nonzero}
    .fil85 {fill:#414141;fill-rule:nonzero}
    .fil115 {fill:#424D63;fill-rule:nonzero}
    .fil94 {fill:#434350;fill-rule:nonzero}
    .fil33 {fill:#44002A;fill-rule:nonzero}
    .fil64 {fill:#452B68;fill-rule:nonzero}
    .fil88 {fill:#465CB2;fill-rule:nonzero}
    .fil145 {fill:#474747;fill-rule:nonzero}
    .fil41 {fill:#481E0C;fill-rule:nonzero}
    .fil103 {fill:#4A5DB3;fill-rule:nonzero}
    .fil102 {fill:#504343;fill-rule:nonzero}
    .fil17 {fill:#506ACC;fill-rule:nonzero}
    .fil51 {fill:#510300;fill-rule:nonzero}
    .fil82 {fill:#535353;fill-rule:nonzero}
    .fil142 {fill:#536471;fill-rule:nonzero}
    .fil25 {fill:#595B5E;fill-rule:nonzero}
    .fil18 {fill:#5A5A5A;fill-rule:nonzero}
    .fil13 {fill:#5A72D5;fill-rule:nonzero}
    .fil97 {fill:#5D5050;fill-rule:nonzero}
    .fil29 {fill:#5E1144;fill-rule:nonzero}
    .fil126 {fill:#616161;fill-rule:nonzero}
    .fil43 {fill:#623826;fill-rule:nonzero}
    .fil0 {fill:#6484FF;fill-rule:nonzero}
    .fil15 {fill:#656565;fill-rule:nonzero}
    .fil66 {fill:#680C27;fill-rule:nonzero}
    .fil101 {fill:#6A5D5D;fill-rule:nonzero}
    .fil11 {fill:#707070;fill-rule:nonzero}
    .fil84 {fill:#757575;fill-rule:nonzero}
    .fil35 {fill:#762066;fill-rule:nonzero}
    .fil26 {fill:#77004B;fill-rule:nonzero}
    .fil114 {fill:#816C5B;fill-rule:nonzero}
    .fil50 {fill:#863B0E;fill-rule:nonzero}
    .fil23 {fill:#8F8F8F;fill-rule:nonzero}
    .fil52 {fill:#93481B;fill-rule:nonzero}
    .fil38 {fill:#948B97;fill-rule:nonzero}
    .fil92 {fill:#9B0020;fill-rule:nonzero}
    .fil31 {fill:#9E1C72;fill-rule:nonzero}
    .fil61 {fill:#9EA3AD;fill-rule:nonzero}
    .fil80 {fill:#9F8153;fill-rule:nonzero}
    .fil109 {fill:#A0A0A0;fill-rule:nonzero}
    .fil123 {fill:#A2A5AC;fill-rule:nonzero}
    .fil55 {fill:#A7876E;fill-rule:nonzero}
    .fil110 {fill:darkgray;fill-rule:nonzero}
    .fil125 {fill:#A9ACB2;fill-rule:nonzero}
    .fil74 {fill:#AD2500;fill-rule:nonzero}
    .fil12 {fill:#ADADAD;fill-rule:nonzero}
    .fil53 {fill:#AE6333;fill-rule:nonzero}
    .fil36 {fill:#B0B6BF;fill-rule:nonzero}
    .fil60 {fill:#B1B6BF;fill-rule:nonzero}
    .fil111 {fill:#B2B2B2;fill-rule:nonzero}
    .fil153 {fill:#B2C2FF;fill-rule:nonzero}
    .fil21 {fill:#B78062;fill-rule:nonzero}
    .fil22 {fill:#B7B7B7;fill-rule:nonzero}
    .fil151 {fill:#B9BBD3;fill-rule:nonzero}
    .fil37 {fill:#BABFC8;fill-rule:nonzero}
    .fil81 {fill:#BDAB42;fill-rule:nonzero}
    .fil83 {fill:#BEBEBE;fill-rule:nonzero}
    .fil150 {fill:#C1C5E8;fill-rule:nonzero}
    .fil127 {fill:#C3C3C3;fill-rule:nonzero}
    .fil112 {fill:#C49B79;fill-rule:nonzero}
    .fil34 {fill:#C9B5B9;fill-rule:nonzero}
    .fil56 {fill:#CBCBCB;fill-rule:nonzero}
    .fil95 {fill:#CC2F00;fill-rule:nonzero}
    .fil20 {fill:#CC8E6D;fill-rule:nonzero}
    .fil45 {fill:#CCA281;fill-rule:nonzero}
    .fil19 {fill:#CCCCCC;fill-rule:nonzero}
    .fil105 {fill:#CD9167;fill-rule:nonzero}
    .fil107 {fill:#CECECE;fill-rule:nonzero}
    .fil117 {fill:#CFD0D0;fill-rule:nonzero}
    .fil71 {fill:#D3875E;fill-rule:nonzero}
    .fil63 {fill:#D3956A;fill-rule:nonzero}
    .fil6 {fill:#D6D8DA;fill-rule:nonzero}
    .fil58 {fill:#D7D8D8;fill-rule:nonzero}
    .fil49 {fill:#D80000;fill-rule:nonzero}
    .fil129 {fill:#D8214B;fill-rule:nonzero}
    .fil67 {fill:#D82E00;fill-rule:nonzero}
    .fil70 {fill:#D87A47;fill-rule:nonzero}
    .fil149 {fill:#D8BB00;fill-rule:nonzero}
    .fil108 {fill:#D9D9D9;fill-rule:nonzero}
    .fil24 {fill:#E59C78;fill-rule:nonzero}
    .fil54 {fill:#E5A16E;fill-rule:nonzero}
    .fil2 {fill:#E5B288;fill-rule:nonzero}
    .fil16 {fill:#E5E5E5;fill-rule:nonzero}
    .fil39 {fill:#EEA288;fill-rule:nonzero}
    .fil68 {fill:#F0DAA9;fill-rule:nonzero}
    .fil69 {fill:#F0E7BD;fill-rule:nonzero}
    .fil32 {fill:#F1F2F2;fill-rule:nonzero}
    .fil48 {fill:#F21A1A;fill-rule:nonzero}
    .fil86 {fill:#F2A57B;fill-rule:nonzero}
    .fil44 {fill:#F2BF95;fill-rule:nonzero}
    .fil47 {fill:#F2F2F2;fill-rule:nonzero}
    .fil27 {fill:#F8AE79;fill-rule:nonzero}
    .fil91 {fill:#FF3B00;fill-rule:nonzero}
    .fil128 {fill:#FF4872;fill-rule:nonzero}
    .fil62 {fill:#FFA16E;fill-rule:nonzero}
    .fil3 {fill:#FFB288;fill-rule:nonzero}
    .fil28 {fill:#FFCCA2;fill-rule:nonzero}
    .fil147 {fill:#FFE200;fill-rule:nonzero}
    .fil152 {fill:#FFEB82;fill-rule:nonzero}
    .fil148 {fill:#FFFFC5;fill-rule:nonzero}
    .fil1 {fill:white;fill-rule:nonzero}
   ]]>
  </style>
 </defs>
 <g id="Layer_x0020_1">
  <metadata id="CorelCorpID_0Corel-Layer"/>
  <polygon class="fil0" points="0,2056 2277,2056 2277,-6 0,-6 "/>
  <path class="fil1" d="M1098 1452l-2 -2 2 -2c644,-112 697,-302 698,-304l2 -1 1 2c0,2 -13,49 -106,111 -85,57 -258,137 -595,195l0 0z"/>
  <path class="fil1" d="M1098 1452l-2 -1 1 -3c250,-154 299,-303 300,-304l3 -1 1 3c0,1 -50,151 -301,306l-1 0z"/>
  <path class="fil1" d="M1101 1452l0 0c-337,-59 -510,-139 -595,-195 -93,-62 -105,-109 -106,-111l1 -2 2 1c0,0 13,48 105,109 85,56 256,136 591,194l2 -303 2 -2 0 0 2 2 -2 305 -1 2 -1 0z"/>
  <path class="fil1" d="M1101 1452l-1 0c-251,-155 -301,-305 -301,-306l1 -3 3 1c0,1 50,150 300,304l1 3 -2 1z"/>
  <path class="fil1" d="M1806 1144c0,6 -4,11 -9,11 -5,0 -9,-5 -9,-11 0,-6 4,-11 9,-11 5,0 9,5 9,11z"/>
  <path class="fil1" d="M1407 1144c0,6 -4,11 -9,11 -5,0 -9,-5 -9,-11 0,-6 4,-11 9,-11 5,0 9,5 9,11z"/>
  <path class="fil1" d="M1112 1144c0,6 -4,11 -9,11 -5,0 -9,-5 -9,-11 0,-6 4,-11 9,-11 5,0 9,5 9,11z"/>
  <path class="fil1" d="M810 1144c0,6 -4,11 -9,11 -5,0 -9,-5 -9,-11 0,-6 4,-11 9,-11 5,0 9,5 9,11z"/>
  <path class="fil1" d="M409 1144c0,6 -4,11 -9,11 -5,0 -9,-5 -9,-11 0,-6 4,-11 9,-11 5,0 9,5 9,11z"/>
  <path class="fil2" d="M1475 1868c0,0 -52,-19 -81,4 -29,23 -19,32 -19,32l100 0 0 -36z"/>
  <path class="fil3" d="M1776 777l-30 -14 2 16c0,0 11,6 20,5 0,0 12,1 8,-7z"/>
  <path class="fil3" d="M1710 769c0,-4 1,-9 2,-13l20 3c10,2 16,5 19,8l1 3c1,7 -1,14 1,21l0 0 0 1 -43 -7 0 0c0,-5 0,-11 0,-17z"/>
  <path class="fil3" d="M1753 790l0 3c1,4 2,8 1,12 -1,4 -4,8 -8,8 -2,0 -4,-2 -7,-1 -2,0 -4,2 -6,2 -4,1 -7,-3 -11,-3 -4,0 -7,-2 -8,-5 -3,-5 -6,-10 -6,-16 0,-4 1,-8 1,-12 12,-3 24,-6 36,-9 2,7 3,16 8,21z"/>
  <polygon class="fil4" points="1725,1076 1762,1076 1763,775 1726,775 "/>
  <path class="fil5" d="M1741 933l1 0c5,0 10,-4 10,-10l0 -17c0,-5 -4,-10 -10,-10l-1 0c-5,0 -10,4 -10,10l0 17c0,5 4,10 10,10z"/>
  <polygon class="fil6" points="1674,1096 1674,1090 1694,1084 1720,1076 1726,1073 1742,1075 1684,1096 "/>
  <path class="fil7" d="M1708 1096l-24 0 58 -21 19 -1c0,0 6,9 6,22l-60 0z"/>
  <path class="fil1" d="M1684 1096l83 0c0,3 0,4 -1,8l-93 0 0 -8 10 0z"/>
  <polygon class="fil1" points="1729,1084 1728,1084 1718,1078 1718,1076 1721,1075 1731,1081 1731,1083 "/>
  <polygon class="fil1" points="1718,1088 1717,1088 1707,1081 1707,1079 1711,1079 1720,1085 1720,1087 "/>
  <polygon class="fil1" points="1707,1092 1705,1091 1695,1084 1695,1082 1699,1082 1709,1089 1709,1091 "/>
  <path class="fil6" d="M1765 1080c0,0 -20,-1 -22,16l25 0c0,0 -1,-12 -3,-16z"/>
  <path class="fil8" d="M1703 769l36 0 -3 -250 -3 0c-18,0 -33,14 -33,30l3 220z"/>
  <path class="fil9" d="M1703 769l36 0 -3 -250 -3 0c-18,0 -33,14 -33,30l3 220z"/>
  <polygon class="fil4" points="1821,1083 1858,1083 1859,782 1822,782 "/>
  <polygon class="fil10" points="1859,761 1728,761 1727,807 1859,789 "/>
  <path class="fil5" d="M1837 940l1 0c5,0 10,-4 10,-10l0 -17c0,-5 -4,-10 -10,-10l-1 0c-5,0 -10,4 -10,10l0 17c0,5 4,10 10,10z"/>
  <path class="fil3" d="M1862 830c2,1 3,0 4,-1 2,0 3,0 5,0l3 -1c3,0 5,3 8,2 2,0 4,-2 6,-3 3,-3 6,-7 9,-10 5,-8 7,-17 9,-26 1,-4 1,-8 1,-12l0 -4 0 -1 -26 2 -8 6 -13 18c0,7 6,3 6,3 3,-1 6,-4 8,-7l-13 31 1 4z"/>
  <polygon class="fil3" points="1763,513 1797,513 1797,464 1763,464 "/>
  <polygon class="fil11" points="1718,774 1861,774 1865,522 1797,512 1760,512 1718,522 "/>
  <polygon class="fil1" points="1813,774 1747,773 1747,516 1777,512 1813,516 "/>
  <polygon class="fil12" points="1840,558 1829,515 1815,514 1815,640 1839,575 1828,560 "/>
  <polygon class="fil12" points="1722,558 1733,516 1748,514 1748,640 1724,575 1735,560 "/>
  <path class="fil13" d="M1752 452c-2,0 -3,-1 -5,-3l0 -1 1 0c1,1 3,2 4,2 0,0 0,0 0,0 2,0 4,-2 4,-2l1 0 1 1c0,1 -2,2 -4,3l-1 0c0,0 0,0 0,0z"/>
  <polygon class="fil14" points="1783,775 1771,775 1771,774 1781,774 1783,774 "/>
  <polygon class="fil15" points="1781,774 1771,774 1771,774 "/>
  <polygon class="fil16" points="1783,774 1781,774 1771,774 1771,526 1773,523 1783,530 "/>
  <polygon class="fil1" points="1801,501 1801,500 1777,511 1790,531 1814,514 "/>
  <polygon class="fil1" points="1762,500 1762,500 1748,514 1765,529 1777,511 "/>
  <polygon class="fil17" points="1749,515 1748,514 1749,515 "/>
  <polygon class="fil18" points="1749,516 1749,515 1749,515 1750,515 "/>
  <polygon class="fil19" points="1761,538 1749,516 1750,515 1765,529 1771,520 1771,526 "/>
  <polygon class="fil18" points="1812,516 1812,516 1813,515 "/>
  <polygon class="fil19" points="1792,536 1783,530 1783,521 1790,531 1812,516 1812,516 "/>
  <polygon class="fil20" points="1777,511 1777,511 1777,511 "/>
  <polygon class="fil21" points="1778,512 1777,512 1777,511 1777,511 "/>
  <polygon class="fil22" points="1783,530 1773,523 1771,526 1771,520 1777,512 1778,512 1783,521 "/>
  <path class="fil9" d="M1872 785c12,2 23,4 35,5 26,-155 -27,-259 -30,-263 -5,-9 -16,-13 -24,-7 -8,6 -11,18 -6,27 1,1 49,96 25,237l0 1z"/>
  <path class="fil23" d="M1903 673l0 0c-5,1 -10,-4 -11,-9l-2 -18c-1,-6 3,-11 9,-11 5,-1 10,4 11,9l2 18c1,6 -3,11 -9,11z"/>
  <polygon class="fil3" points="1815,358 1723,358 1723,474 1750,490 1815,459 "/>
  <path class="fil8" d="M1796 375l35 -8 0 43c-4,-1 -9,0 -12,2 -5,3 -9,9 -10,16 -1,4 -1,8 -1,13l-11 0 0 -66z"/>
  <polygon class="fil24" points="1815,358 1723,358 1723,474 1750,490 1815,459 "/>
  <path class="fil7" d="M1831 367l-93 22c-20,5 -35,-16 -28,-36l74 -19 47 33z"/>
  <path class="fil25" d="M1796 375l35 -8 0 43c-4,-1 -9,0 -12,2 -5,3 -9,9 -10,16 -1,4 -1,8 -1,13l-11 0 0 -66z"/>
  <path class="fil8" d="M1733 425l0 0c2,0 4,-2 4,-4l0 -7c0,-2 -2,-4 -4,-4l0 0c-2,0 -4,2 -4,4l0 7c0,2 2,4 4,4z"/>
  <polygon class="fil1" points="1729,419 1730,421 1733,421 1732,418 "/>
  <path class="fil8" d="M1770 425l0 0c2,0 4,-2 4,-4l0 -7c0,-2 -2,-4 -4,-4l0 0c-2,0 -4,2 -4,4l0 7c0,2 2,4 4,4z"/>
  <polygon class="fil1" points="1766,419 1767,421 1770,421 1769,418 "/>
  <path class="fil24" d="M1804 424c0,10 8,17 17,17 9,0 17,-8 17,-17 0,-10 -8,-17 -17,-17 -9,0 -17,8 -17,17z"/>
  <path class="fil7" d="M1730 457c2,-7 13,-14 13,-14 0,0 1,5 10,4 3,0 5,-2 6,-5 14,2 20,14 20,14l37 -21 0 24 -65 33 -27 -19 0 -23 7 5z"/>
  <path class="fil1" d="M1763 458c0,1 -15,14 -20,0l20 0z"/>
  <path class="fil7" d="M1758 418c0,5 6,10 13,10 7,0 13,-4 13,-10 0,-5 -6,-10 -13,-10 -7,0 -13,4 -13,10zm-3 0c0,-7 7,-13 15,-13 8,0 15,6 15,13 0,7 -7,13 -15,13 -8,0 -15,-6 -15,-13z"/>
  <path class="fil7" d="M1718 418c0,5 6,10 13,10 7,0 13,-4 13,-10 0,-5 -6,-10 -13,-10 -7,0 -13,4 -13,10zm-3 0c0,-7 7,-13 15,-13 8,0 15,6 15,13 0,7 -7,13 -15,13 -8,0 -15,-6 -15,-13z"/>
  <polygon class="fil7" points="1744,420 1756,420 1756,417 1744,417 "/>
  <polygon class="fil7" points="1784,420 1802,420 1802,415 1784,415 "/>
  <polygon class="fil7" points="1713,420 1717,420 1717,415 1713,415 "/>
  <polygon class="fil6" points="1770,1097 1770,1091 1790,1085 1816,1077 1822,1074 1838,1076 1780,1097 "/>
  <path class="fil7" d="M1804 1097l-24 0 58 -21 19 -1c0,0 6,9 6,22l-60 0z"/>
  <path class="fil1" d="M1780 1097l83 0c0,3 0,4 -1,8l-93 0 0 -8 10 0z"/>
  <polygon class="fil1" points="1825,1085 1824,1085 1814,1079 1814,1077 1817,1076 1827,1082 1827,1084 "/>
  <polygon class="fil1" points="1814,1089 1813,1089 1803,1082 1803,1080 1807,1080 1816,1086 1816,1088 "/>
  <polygon class="fil1" points="1803,1093 1801,1092 1791,1085 1791,1083 1795,1083 1805,1090 1805,1092 "/>
  <path class="fil6" d="M1861 1081c0,0 -20,-1 -22,16l25 0c0,0 -1,-12 -3,-16z"/>
  <path class="fil26" d="M1071 772l0 0c7,0 13,-6 13,-13l0 -236c0,-7 -6,-13 -13,-13 -7,0 -13,6 -13,13l0 236c0,7 6,13 13,13z"/>
  <path class="fil27" d="M1076 804l0 -27c1,2 2,5 4,7 0,0 3,5 5,0l-4 -17 -4 -7 -19 -9 0 1 -1 3c-1,3 -2,6 -3,9 -2,7 -3,15 -2,22 1,3 2,7 3,10 1,2 2,3 4,4 2,1 4,0 7,0l1 2 3 2c1,1 2,2 3,2l2 -2z"/>
  <polygon class="fil2" points="1106,504 1135,504 1135,450 1106,450 "/>
  <path class="fil28" d="M1097 1057l27 -4c0,0 -9,-194 -9,-210l0 -14 -22 0 -11 0 2 15c1,17 14,213 14,213z"/>
  <path class="fil28" d="M1142 839c-1,26 10,66 19,91l42 135 28 -9 -42 -135c-7,-19 -20,-65 -15,-88l-31 0 0 7z"/>
  <line class="fil3" x1="1125" y1="1047" x2="1125" y2= "1047" />
  <line class="fil3" x1="1125" y1="1047" x2="1125" y2= "1047" />
  <line class="fil3" x1="1125" y1="1047" x2="1125" y2= "1047" />
  <line class="fil3" x1="1125" y1="1047" x2="1125" y2= "1047" />
  <polygon class="fil29" points="1113,721 1096,721 1061,721 1063,843 1189,844 1189,720 "/>
  <polygon class="fil30" points="1109,680 1109,680 1100,721 1119,721 "/>
  <path class="fil31" d="M1189 720c0,0 0,-32 -6,-46 -2,-6 -6,-11 -10,-15 -3,-4 -7,-7 -12,-10l0 0 -1 0 0 0 5 -20 17 -70 0 0 -4 -51 -42 -3 -33 0c0,0 -13,1 -29,3l-2 39 0 0c-8,7 -10,12 -10,21l0 2c1,9 4,15 14,21l2 8 4 51c-3,3 -7,7 -8,11 -11,25 -12,30 -12,62l40 0 15 0 73 -1z"/>
  <polygon class="fil32" points="1092,503 1107,605 1115,504 "/>
  <polygon class="fil32" points="1107,605 1149,504 1115,504 "/>
  <polygon class="fil1" points="1139,488 1138,488 1115,504 1129,522 1151,504 1150,504 "/>
  <polygon class="fil1" points="1105,491 1105,491 1092,504 1101,520 1115,504 "/>
  <polygon class="fil33" points="1061,721 1100,721 1103,675 1116,721 1189,720 1188,758 1062,737 "/>
  <polygon class="fil34" points="1110,510 1115,504 1121,512 1115,587 1107,605 "/>
  <polygon class="fil35" points="1142,520 1148,507 1148,507 1142,520 "/>
  <polygon class="fil36" points="1129,526 1120,516 1121,512 1115,504 1129,522 1148,507 1142,520 "/>
  <polygon class="fil36" points="1100,526 1093,506 1101,520 1115,504 1110,510 1110,516 "/>
  <polygon class="fil36" points="1092,504 1092,503 1092,504 "/>
  <polygon class="fil37" points="1101,520 1093,506 1092,504 1092,504 "/>
  <polygon class="fil38" points="1120,516 1115,510 1110,516 1110,510 1115,504 1121,512 "/>
  <polygon class="fil39" points="1084,843 1085,881 1118,903 1116,843 "/>
  <path class="fil39" d="M1142 844c0,0 2,38 10,60l32 7c0,0 -13,-58 -13,-66l-30 0z"/>
  <polygon class="fil28" points="1070,1085 1099,1082 1125,1052 1098,1056 1070,1085 "/>
  <polygon class="fil40" points="1117,1096 1126,1096 1130,1063 1118,1078 "/>
  <polygon class="fil40" points="1221,1096 1230,1096 1234,1063 1221,1078 "/>
  <path class="fil8" d="M1129 1055c-2,-7 -4,-9 -4,-9 0,0 0,8 -5,13l-17 18c-9,9 -18,8 -30,9l-2 0c-9,2 -10,10 -10,12l29 0c3,0 6,-1 8,-3l19 -15 2 -2 12 -14 0 0 0 0 -2 -8z"/>
  <polygon class="fil28" points="1174,1085 1203,1082 1229,1052 1202,1056 1174,1085 "/>
  <path class="fil8" d="M1233 1055c-2,-7 -4,-9 -4,-9 0,0 0,8 -5,13l-17 18c-9,9 -18,8 -30,9l-2 0c-9,2 -10,10 -10,12l29 0c3,0 6,-1 8,-3l19 -15 2 -2 12 -14 0 0 0 0 -2 -8z"/>
  <path class="fil41" d="M1119 370c0,0 0,-23 8,-29 8,-6 37,7 37,7l12 38 -58 -16z"/>
  <path class="fil42" d="M1176 370c0,0 1,-33 -22,-33 0,0 -27,-2 -28,9 0,0 13,14 28,8 0,0 -16,-4 -8,-7 8,-2 20,5 24,29 5,30 7,1 6,-7z"/>
  <path class="fil43" d="M1138 452l-34 -60 33 -30 38 11c0,0 4,16 2,29 -2,18 -5,24 -5,24 0,0 -19,32 -34,27z"/>
  <path class="fil44" d="M1069 391l0 69 15 14c5,5 13,6 19,3l28 -15c5,-3 8,-8 8,-13l0 -8 -35 -50 -36 0z"/>
  <path class="fil41" d="M1069 369l25 -15c0,0 27,-14 44,7l-33 30 -35 0 1 0 -1 0 -1 0 0 0 -11 3c0,0 -2,-10 11,-25z"/>
  <path class="fil42" d="M1069 392l0 41c0,0 -9,-4 -11,-15l0 -23 0 0 11 -3z"/>
  <path class="fil44" d="M1127 423c0,7 6,13 13,13 7,0 13,-6 13,-13 0,-7 -6,-13 -13,-13 -7,0 -13,6 -13,13z"/>
  <path class="fil45" d="M1092 444l-1 0c-2,0 -4,-2 -4,-3l0 -1 1 0c0,0 2,2 4,2 0,0 0,0 0,0 1,0 3,-1 4,-2l1 0 0 1c-2,2 -4,2 -5,2z"/>
  <path class="fil46" d="M1108 427l0 0c2,0 3,-2 3,-3l0 -6c0,-2 -1,-3 -3,-3l0 0c-2,0 -3,2 -3,3l0 6c0,2 1,3 3,3z"/>
  <polygon class="fil47" points="1108,419 1110,420 1110,418 1109,418 "/>
  <path class="fil46" d="M1078 427l0 0c2,0 3,-2 3,-3l0 -6c0,-2 -1,-3 -3,-3l0 0c-2,0 -3,2 -3,3l0 6c0,2 1,3 3,3z"/>
  <polygon class="fil47" points="1078,419 1080,420 1080,418 1078,418 "/>
  <path class="fil48" d="M1103 456l-18 0 -4 -4c0,0 16,-8 22,3z"/>
  <path class="fil49" d="M1109 450l-8 10c0,0 -20,4 -18,-5l14 0 11 -5z"/>
  <path class="fil3" d="M1177 798c1,1 2,0 4,-1 1,0 3,0 4,0l2 -1c2,0 4,2 6,2 2,0 4,-1 5,-3 3,-3 6,-6 8,-9 4,-7 7,-16 8,-24 1,-4 1,-7 1,-11l0 -3 0 -1 -22 2 -7 5 -12 16c0,6 5,3 5,3 3,-1 5,-4 7,-6l-11 28 1 4z"/>
  <path class="fil26" d="M1184 759c10,2 20,4 30,5 26,-144 -18,-241 -19,-245 -4,-9 -13,-12 -20,-7 -7,5 -10,16 -6,25 0,1 40,90 16,221l0 1z"/>
  <path class="fil3" d="M631 702c0,1 2,2 3,2l3 3 2 1c1,2 0,5 2,6 1,1 3,2 5,2 4,1 8,1 12,0 8,-1 16,-5 24,-9 3,-2 6,-4 10,-6l3 -2 1 -1 -15 -16 -8 -2 -20 1c-5,4 1,5 1,5 3,2 6,2 9,2l-29 9 -2 3z"/>
  <path class="fil50" d="M819 410c0,0 3,-20 19,-19 0,0 21,-3 24,22l-1 41c0,0 1,15 15,15 0,0 -2,21 -36,16 0,0 -16,-1 -18,-20l-3 -55z"/>
  <path class="fil51" d="M738 394c-6,4 -11,9 -16,14 5,8 13,17 19,24l-3 -38z"/>
  <path class="fil28" d="M803 446l-31 0 0 54c13,20 31,0 31,0l0 -54z"/>
  <path class="fil28" d="M733 363l9 90 15 13c4,4 10,5 15,2l37 -23 3 -81c-1,0 -6,0 -16,0 -13,0 -33,0 -62,0z"/>
  <path class="fil52" d="M813 342l0 0c-7,-9 -11,-12 -22,-14 -6,-1 -14,2 -18,2l-49 33c-4,4 -6,9 -8,15 -1,6 2,25 5,29 5,-5 10,-10 16,-14 5,-4 11,-8 16,-11 7,-5 14,-9 20,-14 13,-9 26,-18 39,-26z"/>
  <path class="fil53" d="M847 382c-5,-24 -12,-40 -32,-39l0 0c-13,9 -25,17 -38,26 8,10 16,20 23,31 3,3 11,14 11,14l-7 33c0,0 0,-4 0,6 41,-37 45,-51 44,-71z"/>
  <path class="fil28" d="M812 431c7,-1 12,-8 11,-15 -1,-7 -8,-12 -15,-11 -7,1 -12,8 -11,15 1,7 8,12 15,11z"/>
  <polygon class="fil54" points="813,341 775,368 777,369 814,343 "/>
  <path class="fil8" d="M747 416l0 0c2,0 4,-2 4,-4l0 -6c0,-2 -2,-4 -4,-4l0 0c-2,0 -4,2 -4,4l0 6c0,2 2,4 4,4z"/>
  <polygon class="fil1" points="744,412 746,413 748,412 746,410 "/>
  <path class="fil8" d="M748 405c-4,0 -6,-3 -7,-3l0 -1 1 0c0,0 3,3 8,2l1 0 0 1 -3 0z"/>
  <path class="fil8" d="M775 415l0 0c2,0 4,-2 4,-4l0 -6c0,-2 -2,-4 -4,-4l0 0c-2,0 -4,2 -4,4l0 6c0,2 2,4 4,4z"/>
  <polygon class="fil1" points="772,411 774,413 775,411 774,409 "/>
  <path class="fil8" d="M775 405c4,0 6,-3 7,-3l0 -1 -1 0c0,0 -3,3 -8,2l-1 0 0 1 3 0z"/>
  <path class="fil55" d="M759 430l-1 0c-2,0 -4,-2 -4,-3l0 -1 1 0c0,0 2,2 4,2 0,0 0,0 0,0 1,0 3,-1 4,-2l1 0 0 1c-2,2 -4,2 -5,2z"/>
  <path class="fil1" d="M781 436c0,0 -2,5 -5,11 -2,4 -5,6 -8,6l-9 0c-4,0 -7,-3 -8,-7l-1 -6 23 0 8 -3z"/>
  <path class="fil28" d="M826 1057l28 -4c0,0 -9,-178 -9,-193l0 -14 -23 0 -11 0 2 15c1,17 14,197 14,197z"/>
  <line class="fil3" x1="854" y1="1047" x2="854" y2= "1047" />
  <line class="fil3" x1="854" y1="1047" x2="854" y2= "1047" />
  <line class="fil3" x1="854" y1="1047" x2="854" y2= "1047" />
  <line class="fil3" x1="854" y1="1047" x2="854" y2= "1047" />
  <polygon class="fil39" points="812,859 814,878 847,900 845,859 "/>
  <polygon class="fil28" points="798,1085 828,1082 854,1051 827,1055 798,1085 "/>
  <polygon class="fil40" points="846,1096 855,1096 859,1063 847,1077 "/>
  <path class="fil8" d="M858 1054c-2,-7 -4,-10 -4,-10 0,0 0,8 -5,13l-17 18c-9,9 -18,8 -31,9l-2 0c-9,2 -10,10 -10,12l29 0c3,0 6,-1 8,-3l19 -15 2 -2 12 -14 0 0 0 0 -2 -8z"/>
  <path class="fil56" d="M733 501c-8,5 -11,16 -7,25 0,1 22,57 5,102 -9,23 -26,41 -54,51l8 35c20,-7 35,-19 48,-32 11,-11 20,-24 26,-40 24,-61 -3,-131 -4,-134 -4,-9 -13,-13 -21,-8z"/>
  <polygon class="fil1" points="677,680 684,709 679,711 672,682 "/>
  <path class="fil28" d="M761 1057l28 -4c0,0 -9,-178 -9,-193l0 -14 -23 0 -11 0 2 15c1,17 14,197 14,197z"/>
  <line class="fil3" x1="789" y1="1047" x2="789" y2= "1047" />
  <line class="fil3" x1="789" y1="1047" x2="789" y2= "1047" />
  <line class="fil3" x1="789" y1="1047" x2="789" y2= "1047" />
  <line class="fil3" x1="789" y1="1047" x2="789" y2= "1047" />
  <polygon class="fil57" points="780,715 762,715 727,716 734,859 852,859 857,714 "/>
  <polygon class="fil30" points="775,674 775,674 767,715 786,715 "/>
  <path class="fil47" d="M857 714c0,0 0,-32 -6,-47 -2,-6 -6,-11 -10,-16 -3,-4 -7,-7 -12,-10l0 0 -1 0 0 0 5 -21 17 -71 0 0 -4 -51 -43 -3 -34 0c0,0 -13,1 -30,3l-2 40 0 0c-8,7 -10,13 -10,21l0 2c1,9 4,15 14,21l2 8 4 51c-3,4 -7,7 -8,11 -11,26 -12,31 -12,63l40 0 16 0 74 -1z"/>
  <polygon class="fil58" points="759,495 774,597 781,496 "/>
  <polygon class="fil58" points="774,597 816,495 781,496 "/>
  <path class="fil47" d="M774 598c21,-8 54,-54 42,-102l-42 102z"/>
  <path class="fil47" d="M759 495l15 103c-15,-10 -33,-59 -15,-103z"/>
  <polygon class="fil1" points="806,479 805,479 781,496 796,513 818,496 817,496 "/>
  <polygon class="fil1" points="771,482 771,482 759,496 768,511 781,496 "/>
  <polygon class="fil59" points="727,716 767,715 769,669 783,715 857,714 856,753 728,731 "/>
  <polygon class="fil60" points="810,511 815,499 815,499 815,499 810,511 "/>
  <polygon class="fil61" points="767,517 759,497 768,511 781,496 781,502 "/>
  <polygon class="fil61" points="796,517 781,502 781,502 781,496 796,513 815,499 810,511 "/>
  <polygon class="fil60" points="815,499 815,499 815,499 "/>
  <polygon class="fil61" points="759,495 759,495 759,495 "/>
  <polygon class="fil37" points="768,511 759,497 759,495 759,495 "/>
  <polygon class="fil39" points="747,859 749,878 781,900 779,859 "/>
  <polygon class="fil28" points="733,1085 763,1082 789,1051 762,1055 733,1085 "/>
  <polygon class="fil40" points="781,1096 790,1096 794,1063 781,1077 "/>
  <path class="fil8" d="M793 1054c-2,-7 -4,-10 -4,-10 0,0 0,8 -5,13l-17 18c-9,9 -18,8 -31,9l-2 0c-9,2 -10,10 -10,12l29 0c3,0 6,-1 8,-3l19 -15 2 -2 12 -14 0 0 0 0 -2 -8z"/>
  <line class="fil8" x1="829" y1="1096" x2="829" y2= "1096" />
  <line class="fil8" x1="651" y1="1096" x2="651" y2= "1096" />
  <path class="fil3" d="M847 764c1,1 2,0 4,-1 1,0 3,0 4,0l2 -1c2,0 4,2 6,2 2,0 4,-1 5,-3 3,-3 6,-6 8,-9 4,-7 7,-16 8,-24 1,-4 1,-7 1,-11l0 -3 0 -1 -22 2 -7 5 -12 16c0,6 5,3 5,3 3,-1 5,-4 7,-6l-11 28 1 4z"/>
  <polygon class="fil47" points="860,712 886,715 886,721 860,719 "/>
  <path class="fil56" d="M857 713c10,1 21,2 31,2 19,-126 -31,-208 -33,-211 -5,-7 -14,-9 -21,-5 -7,5 -9,15 -5,22 0,1 46,75 28,190l0 1z"/>
  <path class="fil62" d="M1406 764c5,7 9,8 16,12 4,-43 13,-86 17,-129 2,-17 3,-33 4,-48l0 -78c0,-16 -23,-17 -24,-1l0 0 0 1c0,3 1,86 -4,126 -2,17 -11,92 -11,92 -3,8 -1,18 4,25z"/>
  <path class="fil63" d="M1429 399c-6,4 -11,9 -16,14 5,8 13,17 19,24l-3 -39z"/>
  <path class="fil64" d="M1500 1045c0,0 1,-132 -1,-179 -1,-33 -11,-134 -11,-134l47 0 -5 312 -31 0z"/>
  <path class="fil64" d="M1421 1045c-1,-5 2,-104 1,-151 -1,-40 2,-157 2,-162l52 0c0,1 -22,123 -21,160 1,44 -4,151 -4,152l-31 0z"/>
  <polygon class="fil65" points="1424,740 1534,755 1535,732 1424,732 "/>
  <path class="fil47" d="M1442 648l74 0c4,3 27,31 24,84l-119 0c3,-64 19,-80 21,-84z"/>
  <path class="fil47" d="M1428 555l2 -47 1 0 27 -3 34 0 43 5 3 51 -24 88 -73 0 -8 -50c-12,-1 -17,-12 -17,-23 0,-3 10,-21 10,-20z"/>
  <path class="fil62" d="M1494 452l-32 0 0 55c13,20 31,0 31,0l0 -55z"/>
  <polygon class="fil62" points="1403,1085 1419,1083 1452,1045 1430,1045 1403,1085 "/>
  <polygon class="fil66" points="1447,1096 1451,1096 1456,1052 1448,1063 "/>
  <path class="fil67" d="M1390 1096l23 0c8,0 16,-4 21,-11l15 -22 8 -11 0 0 0 0 -4 -7c0,0 -7,-1 -15,12 -3,5 -15,28 -32,28l-2 0c-9,2 -13,9 -13,11z"/>
  <path class="fil62" d="M1423 367l9 91 15 13c4,4 11,5 16,2l38 -24 3 -82c-1,0 -6,0 -17,0 -13,0 -34,0 -63,0z"/>
  <path class="fil68" d="M1505 347l0 0c-7,-9 -17,-12 -28,-14 -4,-1 -8,-1 -12,0l-55 33c-4,4 -6,10 -8,15 -1,6 -1,12 0,17l2 3c2,4 5,8 8,12 5,-5 10,-10 16,-14 5,-4 11,-8 16,-12 7,-5 14,-9 21,-14 13,-9 26,-18 40,-27z"/>
  <path class="fil69" d="M1545 400l-1 -15c-6,-22 -15,-39 -37,-38l0 0c-13,9 -26,18 -39,27 8,10 16,21 24,32 3,4 11,14 11,14l-7 35c0,0 0,12 0,30l16 0c18,0 34,-15 34,-33l0 -51z"/>
  <path class="fil62" d="M1504 438c7,-1 13,-8 12,-15 -1,-7 -8,-13 -15,-12 -7,1 -13,8 -12,15 1,7 8,13 15,12z"/>
  <polygon class="fil62" points="1505,346 1467,373 1468,374 1506,347 "/>
  <polygon class="fil62" points="1465,576 1463,507 1494,507 "/>
  <polygon class="fil70" points="1465,562 1494,507 1465,576 "/>
  <polygon class="fil1" points="1443,453 1463,453 1464,450 1443,449 "/>
  <path class="fil49" d="M1464 450l-21 -1 -4 -4c0,0 18,-7 25,4z"/>
  <path class="fil49" d="M1471 446l-11 12c0,0 -20,4 -17,-6l14 0 14 -7z"/>
  <path class="fil8" d="M1438 422l0 0c2,0 4,-2 4,-4l0 -6c0,-2 -2,-4 -4,-4l0 0c-2,0 -4,2 -4,4l0 6c0,2 2,4 4,4z"/>
  <polygon class="fil1" points="1435,417 1436,419 1438,417 1436,416 "/>
  <path class="fil8" d="M1438 411c-4,0 -7,-3 -7,-3l0 -1 1 0c0,0 3,3 8,2l1 0 0 1 -3 0z"/>
  <path class="fil8" d="M1466 421l0 0c2,0 4,-2 4,-4l0 -6c0,-2 -2,-4 -4,-4l0 0c-2,0 -4,2 -4,4l0 6c0,2 2,4 4,4z"/>
  <polygon class="fil1" points="1463,417 1465,419 1467,417 1465,415 "/>
  <path class="fil8" d="M1466 411c4,0 7,-3 7,-3l0 -1 -1 0c0,0 -3,3 -8,2l-1 0 0 1 3 0z"/>
  <path class="fil71" d="M1450 436l-1 0c-2,0 -4,-2 -4,-3l0 -1 1 0c0,0 2,2 4,2 0,0 0,0 0,0 1,0 3,-1 4,-2l1 0 0 1c-2,2 -4,2 -5,2z"/>
  <path class="fil72" d="M1531 1045l-12 0c0,-33 -2,-110 -3,-179l18 0 -3 179z"/>
  <path class="fil72" d="M1515 828c-1,-31 -2,-59 -2,-76l22 3 1 -22 1 0 -1 43 -20 0 -1 53z"/>
  <path class="fil73" d="M1534 755l-22 -3c0,-12 -1,-20 -1,-20l23 0 -1 22z"/>
  <path class="fil17" d="M1452 1045l0 0c0,-1 5,-92 4,-141 0,10 1,16 1,16l-6 125zm10 -213c4,-31 10,-65 13,-84l1 0 -14 84z"/>
  <path class="fil72" d="M1452 1045l0 0 0 0c0,0 0,0 -1,0 0,0 0,0 -1,0l-12 0 3 -162c-2,-45 18,-138 18,-138l14 2c-3,19 -9,53 -13,84l-1 8c-4,28 -5,51 -4,65 0,49 -5,140 -4,141l0 0z"/>
  <path class="fil74" d="M1452 1045l-1 0 0 0c0,0 0,0 1,0 0,0 1,0 1,0l0 0z"/>
  <polygon class="fil62" points="1483,1085 1499,1083 1531,1045 1509,1045 1483,1085 "/>
  <polygon class="fil66" points="1527,1096 1531,1096 1536,1052 1528,1063 "/>
  <path class="fil67" d="M1469 1096l23 0c8,0 16,-4 21,-11l15 -22 8 -11 0 0 0 0 -4 -7c0,0 -7,-1 -15,12 -3,5 -15,28 -32,28l-2 0c-9,2 -13,9 -13,11z"/>
  <path class="fil75" d="M1563 764c-3,0 -5,2 -5,5l0 7c0,3 2,5 5,5l21 0c3,0 5,-2 5,-5l0 -7c0,-3 -2,-5 -5,-5l-21 0zm-9 12l0 -7c0,-5 4,-9 9,-9l21 0c5,0 9,4 9,9l0 7c0,5 -4,9 -9,9l-21 0c-5,0 -9,-4 -9,-9z"/>
  <polygon class="fil76" points="1514,866 1636,864 1637,774 1515,775 "/>
  <polygon class="fil77" points="1515,833 1515,828 1515,828 1515,833 "/>
  <polygon class="fil78" points="1515,828 1515,828 1515,775 "/>
  <polygon class="fil79" points="1515,833 1515,828 1515,775 1637,774 1617,821 "/>
  <path class="fil80" d="M1638 777l-25 0 0 34c0,5 -4,9 -9,9l-76 1c-5,0 -9,-4 -9,-9l0 -38 119 -1 0 4z"/>
  <polygon class="fil75" points="1637,777 1617,777 1616,864 1626,854 1636,864 "/>
  <polygon class="fil75" points="1533,841 1545,841 1545,807 1533,807 "/>
  <polygon class="fil81" points="1531,836 1547,835 1547,826 1531,826 "/>
  <polygon class="fil82" points="1533,833 1545,833 1545,826 1533,826 "/>
  <polygon class="fil75" points="1586,840 1598,840 1598,806 1586,806 "/>
  <polygon class="fil81" points="1584,835 1600,835 1600,825 1584,826 "/>
  <polygon class="fil82" points="1586,833 1598,833 1598,825 1586,826 "/>
  <path class="fil62" d="M1563 765c6,6 10,6 18,8 -6,-43 -6,-86 -11,-130 -2,-17 -4,-33 -7,-48l-17 -76c-3,-16 -26,-12 -24,4l0 0 0 1c1,3 19,84 23,124 1,17 9,92 9,92 -1,9 3,17 9,24z"/>
  <polygon class="fil83" points="1440,631 1443,648 1516,648 1520,631 "/>
  <polygon class="fil47" points="1460,652 1481,652 1481,629 1460,629 "/>
  <polygon class="fil83" points="1464,645 1477,645 1477,633 1464,633 "/>
  <polygon class="fil27" points="357,475 391,472 387,417 352,420 "/>
  <polygon class="fil27" points="401,336 321,333 317,429 339,447 398,420 "/>
  <path class="fil84" d="M385 349l30 -5 -1 36c-3,-1 -7,0 -10,1 -5,3 -8,7 -9,13 -1,3 -1,7 -2,11l-9 0 2 -55z"/>
  <path class="fil27" d="M393 392c0,8 6,15 14,15 8,0 15,-6 15,-14 0,-8 -6,-15 -14,-15 -8,0 -15,6 -15,14z"/>
  <path class="fil85" d="M415 343l-96 16c-1,0 0,-8 -3,-18 -4,-10 -4,-16 -14,-27 1,-2 4,-2 6,-3 11,-2 21,-2 32,0 5,1 22,5 26,6 -2,-5 -6,-9 -12,-12 0,0 40,-5 55,23 0,0 1,-6 12,-3 0,0 -4,3 -5,18z"/>
  <polygon class="fil27" points="384,351 415,346 415,343 384,348 "/>
  <path class="fil1" d="M364 412c0,0 -3,5 -7,11 -2,4 -6,6 -11,6l-11 -1c-5,0 -8,-4 -9,-8l-1 -7 28 2 10 -3z"/>
  <path class="fil8" d="M328 385l0 0c2,0 3,-1 3,-3l0 -5c0,-2 -1,-3 -3,-3l0 0c-2,0 -3,1 -3,3l0 5c0,2 1,3 3,3z"/>
  <polygon class="fil1" points="326,381 327,383 328,381 327,380 "/>
  <path class="fil8" d="M355 385l0 0c2,0 3,-1 3,-3l0 -5c0,-2 -1,-3 -3,-3l0 0c-2,0 -3,1 -3,3l0 5c0,2 1,3 3,3z"/>
  <polygon class="fil1" points="352,381 354,383 355,381 354,380 "/>
  <path class="fil86" d="M186 671c0,0 -35,5 -36,-26l33 -5 3 31z"/>
  <path class="fil87" d="M316 470c-12,3 -20,13 -18,24 0,1 12,67 -26,108 -19,21 -47,35 -87,36l-1 39c28,-1 52,-9 73,-18 18,-8 34,-19 47,-33 51,-56 37,-138 36,-141 -2,-11 -13,-17 -25,-15z"/>
  <polygon class="fil1" points="185,640 185,672 179,672 179,640 "/>
  <path class="fil75" d="M545 753c-3,0 -6,3 -6,6l0 9c0,3 3,6 6,6l25 0c3,0 6,-3 6,-6l0 -9c0,-3 -3,-6 -6,-6l-25 0zm-12 15l0 -9c0,-6 5,-11 12,-11l25 0c6,0 11,5 11,11l0 9c0,6 -5,11 -12,11l-25 0c-6,0 -11,-5 -11,-11z"/>
  <polygon class="fil76" points="486,877 635,876 636,765 487,767 "/>
  <polygon class="fil88" points="487,838 487,767 487,838 "/>
  <polygon class="fil79" points="487,838 487,767 636,765 611,823 "/>
  <path class="fil80" d="M637 769l-31 0 0 42c0,6 -5,11 -11,11l-93 1c-6,0 -11,-5 -11,-11l1 -46 145 -1 0 5z"/>
  <polygon class="fil75" points="636,769 612,770 610,875 623,863 635,875 "/>
  <polygon class="fil75" points="508,847 523,847 524,805 509,806 "/>
  <polygon class="fil81" points="506,841 526,840 526,829 506,829 "/>
  <polygon class="fil82" points="509,838 524,838 524,829 509,829 "/>
  <polygon class="fil75" points="573,846 588,846 589,805 574,805 "/>
  <polygon class="fil81" points="571,840 591,840 591,828 571,829 "/>
  <polygon class="fil82" points="573,837 589,837 589,828 574,829 "/>
  <line class="fil8" x1="446" y1="339" x2="446" y2= "339" />
  <path class="fil89" d="M323 752l40 19c-1,1 -54,118 7,282l-46 0c-61,-177 -3,-296 -1,-301z"/>
  <path class="fil90" d="M450 707c0,0 10,66 -23,67l-113 0 0 -67 135 0z"/>
  <polygon class="fil90" points="307,644 458,644 459,473 417,470 390,468 351,468 308,474 "/>
  <polygon class="fil90" points="307,735 458,735 458,644 307,644 "/>
  <polygon class="fil89" points="450,735 450,741 314,760 314,736 "/>
  <polygon class="fil16" points="404,467 362,595 339,469 "/>
  <polygon class="fil91" points="375,479 369,492 378,547 362,595 353,544 360,492 358,479 366,468 "/>
  <polygon class="fil92" points="357,514 360,492 369,492 370,499 "/>
  <polygon class="fil87" points="368,607 367,681 388,735 360,735 362,595 "/>
  <path class="fil93" d="M457 540c0,0 -25,-30 -24,-49l-12 245 37 0 -1 -196z"/>
  <polygon class="fil87" points="442,673 437,687 406,675 400,654 400,685 442,700 "/>
  <polygon class="fil94" points="322,522 335,522 327,539 362,607 404,540 396,524 413,525 413,469 404,467 362,595 339,469 325,471 "/>
  <path class="fil87" d="M343 651c0,3 2,5 5,5 3,0 5,-2 5,-5 0,-3 -2,-5 -5,-5 -3,0 -5,2 -5,5z"/>
  <polygon class="fil1" points="392,453 392,452 366,468 380,486 406,468 "/>
  <polygon class="fil1" points="351,453 351,452 336,468 354,485 366,468 "/>
  <path class="fil22" d="M349 494l-9 -18 -1 -6 15 14 13 -17 -8 11 1 4 -10 12zm33 -2l-10 -7 3 -6 6 8 23 -16 0 0 -21 21z"/>
  <polygon class="fil95" points="372,485 362,478 359,482 358,479 366,468 366,468 375,479 "/>
  <polygon class="fil17" points="336,469 336,468 337,469 "/>
  <path class="fil96" d="M340 477l-4 -8 1 0 2 2 1 6zm63 -6l0 0 1 -1 -1 1z"/>
  <path class="fil97" d="M375 1081c0,4 0,8 -1,13l-51 0 22 -13 30 0z"/>
  <path class="fil98" d="M280 1083c0,0 14,0 26,-6 6,-3 26,-17 26,-17l37 0c0,0 7,-1 7,21l-30 0 -22 13 -44 0 0 -11z"/>
  <path class="fil99" d="M305 1077l26 -17c0,0 -21,14 -26,17zm65 -17c0,0 -1,0 -2,0l0 0c1,0 2,0 2,0z"/>
  <path class="fil100" d="M305 1077l0 0c6,-3 26,-17 26,-17l37 0c0,0 0,0 0,0l0 0c0,0 0,0 0,0l-63 17z"/>
  <path class="fil101" d="M445 1081c0,4 0,8 -1,13l-51 0 22 -13 30 0z"/>
  <path class="fil102" d="M349 1083c0,0 18,-2 30,-8 6,-3 22,-15 22,-15l37 0c0,0 7,-1 7,21l-30 0 -22 13 -44 0 0 -11z"/>
  <path class="fil103" d="M379 1075l22 -15c0,0 -17,12 -22,15zm61 -15c0,0 -1,0 -2,0l0 0c1,0 2,0 2,0z"/>
  <path class="fil104" d="M379 1075l0 0c6,-3 22,-15 22,-15l37 0c0,0 0,0 0,0l0 0c0,0 0,0 0,0l-59 15z"/>
  <polygon class="fil7" points="336,1060 370,1060 370,1053 336,1053 "/>
  <polygon class="fil7" points="406,1060 440,1060 440,1053 406,1053 "/>
  <path class="fil93" d="M394 1053l45 0 0 -284c0,-13 -10,-23 -22,-23 -12,0 -22,10 -22,23l0 284z"/>
  <path class="fil86" d="M575 726c0,0 9,31 -21,38l-8 -30 29 -9z"/>
  <polygon class="fil1" points="545,731 576,725 577,733 546,738 "/>
  <path class="fil93" d="M542 733c12,-2 24,-5 36,-7 -20,-151 -112,-245 -115,-248 -8,-7 -19,-6 -26,2 -7,8 -6,20 2,27 1,1 86,89 103,226l0 1z"/>
  <path class="fil105" d="M338 405c-2,0 -4,-1 -7,-3l0 -1 1 0c2,2 3,3 5,3 0,0 0,0 0,0 3,0 5,-2 5,-2l1 0 1 1c0,1 -2,3 -5,3l-2 0z"/>
  <polygon class="fil83" points="2008,1395 2041,1395 2041,1324 2008,1324 "/>
  <polygon class="fil83" points="1934,1225 1967,1225 1967,1153 1934,1153 "/>
  <path class="fil83" d="M2039 1395c-18,0 -32,-16 -32,-35l0 -81 17 -10c54,-31 58,-68 58,-80 -1,-2 -1,-4 -1,-6 -5,-24 -17,-35 -41,-35l0 0c-33,0 -40,34 -41,45 -2,19 -18,33 -36,31 -18,-2 -30,-19 -29,-38 4,-37 30,-107 105,-107l0 0c53,0 92,33 104,87l2 4 1 5c1,4 13,85 -73,146l0 40c0,19 -14,35 -32,35l0 0z"/>
  <path class="fil83" d="M2071 1448c0,20 -15,35 -33,35 -18,0 -33,-16 -33,-35 0,-20 15,-35 33,-35 18,0 33,16 33,35z"/>
  <polygon class="fil83" points="2008,1484 2039,1484 2039,1413 2008,1413 "/>
  <path class="fil1" d="M2011 1395c-18,0 -32,-16 -32,-35l0 -81 17 -10c54,-31 58,-68 58,-80 -1,-2 -1,-4 -1,-6 -5,-24 -17,-35 -41,-35l0 0c-33,0 -40,34 -41,45 -2,19 -18,33 -36,31 -18,-2 -30,-19 -29,-38 4,-37 30,-107 105,-107l0 0c53,0 92,33 104,87l2 4 1 5c1,4 13,85 -73,146l0 40c0,19 -14,35 -32,35l0 0z"/>
  <path class="fil1" d="M2043 1448c0,20 -15,35 -33,35 -18,0 -33,-16 -33,-35 0,-20 15,-35 33,-35 18,0 33,16 33,35z"/>
  <path class="fil106" d="M1702 1627c0,-2 0,-4 0,-5 1,-6 -1,-12 -4,-18 -7,-11 -21,-14 -31,-6 -10,8 -10,19 -9,31 4,88 -13,152 -49,188 -33,33 -82,45 -147,35l0 50c8,1 16,2 23,3 65,4 117,-13 154,-51 47,-47 68,-124 64,-228z"/>
  <polygon class="fil106" points="1688,1639 1688,1639 "/>
  <polygon class="fil106" points="1688,1639 1688,1639 "/>
  <line class="fil106" x1="1688" y1="1639" x2="1688" y2= "1639" />
  <polygon class="fil106" points="1688,1639 1688,1639 "/>
  <polygon class="fil16" points="1930,1850 2156,1850 2156,1805 1930,1805 "/>
  <polygon class="fil47" points="2170,1882 1944,1882 1944,1850 2057,1844 2170,1853 "/>
  <path class="fil16" d="M1982 1805c0,0 -52,0 -44,-24 0,0 49,24 163,24l-119 0z"/>
  <path class="fil1" d="M2019 1801l-70 -23c0,0 -9,11 6,18l64 5z"/>
  <polygon class="fil107" points="2079,1820 2153,1820 2153,1817 2079,1817 "/>
  <polygon class="fil108" points="2081,1868 2138,1868 2138,1866 2081,1866 "/>
  <polygon class="fil107" points="2039,1828 2112,1828 2112,1825 2039,1825 "/>
  <polygon class="fil107" points="2088,1839 2140,1839 2140,1835 2088,1835 "/>
  <polygon class="fil108" points="2112,1859 2143,1859 2143,1855 2112,1855 "/>
  <polygon class="fil1" points="2185,1909 2181,1869 1955,1880 1958,1909 "/>
  <polygon class="fil16" points="2051,1894 2050,1892 2124,1888 2124,1891 "/>
  <polygon class="fil16" points="2092,1900 2092,1897 2165,1894 2165,1897 "/>
  <polygon class="fil16" points="2117,1909 2065,1909 2065,1908 2117,1906 "/>
  <polygon class="fil88" points="2042,1909 1957,1909 1954,1886 1944,1886 1944,1854 1930,1854 1930,1850 1944,1850 1944,1882 1955,1882 1958,1909 "/>
  <polygon class="fil109" points="1944,1850 1930,1850 1930,1811 2034,1811 2034,1845 "/>
  <polygon class="fil110" points="1955,1882 1944,1882 1944,1850 2034,1845 2034,1849 2052,1848 2052,1875 1955,1880 "/>
  <polygon class="fil111" points="2042,1909 1958,1909 1955,1882 1955,1880 2052,1875 2052,1886 2040,1886 "/>
  <polygon class="fil2" points="1731,1614 1787,1614 1787,1491 1731,1491 "/>
  <path class="fil2" d="M1663 1351l15 151 29 25c7,6 18,8 27,3l69 -40 6 -138c-1,0 -11,0 -30,0 -24,0 -62,1 -115,0z"/>
  <path class="fil112" d="M1717 1468l-2 0c-4,-1 -7,-4 -8,-5l1 -2 2 1c1,1 3,3 7,3 0,0 0,0 0,0 3,0 5,-1 7,-4l2 0 0 2c-3,4 -7,5 -9,5z"/>
  <path class="fil113" d="M1747 1436l1 0c4,0 6,-3 6,-6l0 -11c0,-4 -3,-6 -6,-6l-1 0c-4,0 -6,3 -6,6l0 11c0,4 3,6 6,6z"/>
  <polygon class="fil1" points="1747,1423 1751,1424 1751,1421 1748,1420 "/>
  <path class="fil113" d="M1690 1436l1 0c4,0 6,-3 6,-6l0 -11c0,-4 -3,-6 -6,-6l-1 0c-4,0 -6,3 -6,6l0 11c0,4 3,6 6,6z"/>
  <polygon class="fil1" points="1690,1423 1693,1424 1694,1421 1690,1420 "/>
  <path class="fil114" d="M1758 1397l-2 -1c0,-1 -3,-4 -7,-4 0,0 -1,0 -1,0 -2,0 -5,1 -7,3l-2 0 0 -2c3,-3 6,-4 9,-4 0,0 1,0 1,0l2 0c4,1 7,5 7,5l-1 2z"/>
  <path class="fil114" d="M1679 1408l0 -2c3,-4 6,-5 9,-6l2 0c4,0 8,3 8,4l-1 2 -2 0c-1,-1 -3,-3 -7,-3 0,0 0,0 -1,0 -3,0 -5,2 -7,5l-2 0z"/>
  <polygon class="fil115" points="1740,1909 1740,1909 1725,1984 1759,1983 "/>
  <path class="fil116" d="M1886 1981c0,0 0,-58 -11,-84 -4,-10 -10,-20 -18,-28 -6,-7 -13,-13 -21,-18l-2 0 0 0 9 -37 30 -127 1 0 -7 -92 -76 -5 -60 0c0,0 -23,2 -53,5l-4 72 0 0c-14,13 -19,23 -18,38l0 3c1,16 7,27 26,37l3 14 7 92c-5,6 -12,13 -15,20 -20,46 -22,55 -22,113l72 -1 28 0 133 -2z"/>
  <polygon class="fil117" points="1710,1588 1737,1772 1751,1590 "/>
  <polygon class="fil117" points="1737,1772 1813,1589 1751,1590 "/>
  <path class="fil118" d="M1827 1593c0,-1 21,135 -89,179 -110,44 0,0 0,0l79 -179 10 0z"/>
  <path class="fil119" d="M1737 1773c0,1 0,0 0,0 0,0 0,-1 0,0 38,-13 97,-97 76,-183l-76 183z"/>
  <path class="fil120" d="M1710 1588l27 184c-28,-18 -59,-107 -27,-184z"/>
  <polygon class="fil108" points="1795,1559 1794,1559 1751,1590 1777,1622 1816,1590 1815,1590 "/>
  <polygon class="fil108" points="1732,1565 1732,1565 1710,1590 1726,1618 1751,1590 "/>
  <polygon class="fil121" points="1654,1985 1725,1984 1729,1900 1754,1983 1886,1981 1884,2052 1655,2012 "/>
  <polygon class="fil122" points="1801,1618 1811,1595 1811,1595 1811,1595 "/>
  <polygon class="fil123" points="1725,1628 1711,1592 1726,1618 1751,1590 1750,1601 "/>
  <polygon class="fil123" points="1777,1628 1751,1600 1750,1601 1751,1590 1777,1622 1811,1595 1801,1618 "/>
  <polygon class="fil124" points="1811,1595 1811,1595 1811,1595 "/>
  <polygon class="fil123" points="1710,1589 1710,1588 1710,1589 "/>
  <polygon class="fil125" points="1726,1618 1711,1592 1710,1589 1710,1589 "/>
  <polygon class="fil126" points="984,2056 2090,2056 2090,1935 984,1935 "/>
  <polygon class="fil127" points="901,1978 2182,1978 2182,1905 901,1905 "/>
  <path class="fil2" d="M1667 1873c0,0 -43,-16 -66,4 -23,20 -16,28 -16,28l82 0 0 -32z"/>
  <path class="fil120" d="M1900 1623c0,-2 0,-4 -1,-5 0,-6 -1,-12 -6,-17 -9,-10 -25,-12 -35,-3 -11,9 -10,19 -8,30 9,85 -6,147 -44,185 -32,32 -82,46 -149,44l0 48c5,0 11,1 16,1 73,0 129,-20 169,-59 49,-49 68,-124 58,-223z"/>
  <path class="fil119" d="M1900 1623c0,-2 0,-4 -1,-5 0,-6 -1,-12 -6,-17 -4,-5 -10,-8 -16,-9l0 0c4,5 6,11 6,17 0,1 0,3 1,5 11,100 -9,175 -58,223 -39,39 -96,59 -168,59l0 8c5,0 11,1 16,1 73,0 129,-20 169,-59 49,-49 68,-124 58,-223z"/>
  <path class="fil128" d="M1746 1492l-40 0 -8 -7c0,0 35,-14 48,7z"/>
  <path class="fil129" d="M1750 1486l-9 14c0,0 -39,8 -34,-10l28 0 16 -4z"/>
  <path class="fil130" d="M1807 1443c0,0 -4,-36 26,-42 0,0 37,-15 53,27l16 71c0,0 8,26 33,20 0,0 7,37 -57,43 0,0 -30,6 -41,-26l-30 -94z"/>
  <path class="fil131" d="M1871 1374c-10,-44 -22,-72 -60,-72l-1 0c-24,16 -47,31 -71,47 15,18 29,37 43,56 5,6 20,25 20,25l-13 61c0,0 0,-7 0,12 76,-67 83,-93 81,-129z"/>
  <path class="fil132" d="M1668 1398c-10,8 -20,16 -29,25 10,14 24,30 35,43l-6 -68z"/>
  <path class="fil133" d="M1809 1305l0 0c-12,-16 -21,-22 -41,-25 -11,-2 -26,3 -34,4l-90 60c-7,8 -12,17 -14,27 -3,10 4,45 9,52 9,-9 19,-18 29,-25 10,-7 20,-14 30,-21 13,-8 25,-16 38,-25 24,-16 48,-31 72,-47z"/>
  <path class="fil2" d="M1812 1462c13,-2 22,-13 20,-26 -2,-13 -13,-22 -26,-20 -13,2 -22,13 -20,26 2,13 13,22 26,20z"/>
  <polygon class="fil134" points="853,1754 1385,1754 1385,1404 853,1404 "/>
  <polygon class="fil135" points="1109,1578 842,1753 842,1753 1374,1753 1374,1753 "/>
  <polygon class="fil136" points="1374,1405 1109,1578 1374,1753 "/>
  <polygon class="fil137" points="842,1753 1109,1578 846,1403 842,1403 "/>
  <polygon class="fil138" points="1374,1405 1374,1403 846,1403 1109,1578 "/>
  <polygon class="fil134" points="954,1681 1265,1681 1265,1476 954,1476 "/>
  <polygon class="fil139" points="1179,1681 1142,1681 1142,1681 1179,1681 "/>
  <polygon class="fil140" points="1179,1681 1142,1681 1148,1538 "/>
  <polygon class="fil136" points="1148,1538 1077,1538 1075,1699 1146,1699 "/>
  <polygon class="fil141" points="1075,1699 1051,1878 1122,1878 1146,1699 "/>
  <polygon class="fil142" points="1137,1538 1066,1538 1063,1699 1134,1699 "/>
  <polygon class="fil143" points="1063,1699 1039,1878 1110,1878 1134,1699 "/>
  <path class="fil137" d="M1233 1907l-301 0c-9,0 -17,-7 -17,-17l0 -5c0,-9 7,-17 17,-17l301 0c9,0 17,7 17,17l0 5c0,9 -7,17 -17,17z"/>
  <path class="fil136" d="M1236 1889l-306 0c-6,0 -10,-4 -13,-10 -1,3 -2,6 -2,9 0,11 6,19 14,19l306 0c8,0 14,-9 14,-19 0,-3 -1,-6 -2,-9 -2,6 -7,10 -13,10z"/>
  <path class="fil144" d="M1080 1839l0 0c-7,0 -11,-6 -10,-13l13 -100c1,-7 7,-13 14,-13 7,0 11,6 10,13l-13 100c-1,7 -7,13 -14,13z"/>
  <path class="fil145" d="M1449 1905l0 -2c0,-11 -18,-20 -41,-20 -23,0 -41,9 -41,20l0 2 82 0z"/>
  <path class="fil146" d="M1431 1903l0 2 18 0 0 -2c0,-11 -18,-20 -41,-20 -4,0 -8,0 -11,1 19,2 34,10 34,19z"/>
  <path class="fil17" d="M360 258c-55,0 -100,-45 -100,-100 0,-55 45,-100 100,-100 34,0 63,17 82,42l-24 3 25 24 -6 34 12 -6 11 -6 0 0 -11 6 -12 6 9 10 14 -7c0,6 -1,11 -3,16l-2 -1c-3,9 -7,19 -11,30 -18,28 -49,47 -85,47zm-9 -129l0 97 26 0 0 -135 -21 0c-3,8 -8,15 -16,21 -8,6 -15,10 -22,12l0 23c13,-4 24,-11 33,-19zm80 17c-9,4 -19,8 -31,13 12,-5 23,-8 31,-12l-1 -2zm-50 -19c15,0 29,1 40,1l0 -2c-11,0 -24,0 -39,0 0,0 -1,0 -1,0zm68 78c2,-6 5,-11 7,-16 -2,6 -4,11 -7,16z"/>
  <path class="fil1" d="M377 225l-26 0 0 -97c-9,9 -20,15 -33,19l0 -23c7,-2 14,-6 22,-12 8,-6 13,-13 16,-21l21 0 0 135z"/>
  <path class="fil17" d="M796 297c-35,0 -64,-28 -64,-64 0,-35 28,-64 64,-64 35,0 64,28 64,64 0,35 -28,64 -64,64z"/>
  <path class="fil1" d="M825 257l0 15 -57 0c1,-6 2,-11 6,-16 3,-5 9,-12 18,-20 7,-7 12,-12 14,-14 2,-3 3,-7 3,-10 0,-4 -1,-6 -3,-8 -2,-2 -5,-3 -8,-3 -3,0 -6,1 -8,3 -2,2 -3,5 -4,10l-16 -2c1,-9 4,-15 9,-19 5,-4 12,-6 19,-6 8,0 15,2 20,7 5,5 7,10 7,17 0,4 -1,8 -2,11 -1,3 -4,7 -7,11 -2,3 -6,6 -11,11 -5,5 -8,8 -10,9 -1,2 -2,3 -3,5l32 0z"/>
  <path class="fil17" d="M1128 297c-35,0 -64,-28 -64,-64 0,-35 28,-64 64,-64 35,0 64,28 64,64 0,35 -28,64 -64,64z"/>
  <path class="fil1" d="M1100 249l16 -2c1,4 2,7 4,9 2,2 5,3 8,3 3,0 6,-1 9,-4 2,-3 3,-6 3,-10 0,-4 -1,-7 -3,-10 -2,-2 -5,-4 -8,-4 -2,0 -5,0 -8,1l2 -13c4,0 8,-1 10,-3 2,-2 3,-5 3,-8 0,-3 -1,-5 -3,-7 -2,-2 -4,-3 -7,-3 -3,0 -5,1 -7,3 -2,2 -3,5 -4,9l-15 -3c1,-5 3,-9 5,-12 2,-3 5,-6 9,-7 4,-2 8,-3 13,-3 8,0 14,3 19,8 4,4 6,9 6,14 0,7 -4,13 -12,18 5,1 9,3 12,7 3,4 4,8 4,13 0,7 -3,14 -8,19 -5,5 -12,8 -20,8 -8,0 -14,-2 -19,-7 -5,-4 -8,-10 -9,-17z"/>
  <path class="fil17" d="M1452 297c-35,0 -64,-28 -64,-64 0,-35 28,-64 64,-64 35,0 64,28 64,64 0,35 -28,64 -64,64z"/>
  <path class="fil1" d="M1456 245l0 -29 -20 29 20 0zm0 32l0 -17 -35 0 0 -14 37 -54 14 0 0 54 11 0 0 14 -11 0 0 17 -16 0z"/>
  <path class="fil17" d="M1783 297c-35,0 -64,-28 -64,-64 0,-35 28,-64 64,-64 35,0 64,28 64,64 0,35 -28,64 -64,64z"/>
  <path class="fil1" d="M1754 249l16 -2c0,4 2,7 4,9 2,2 5,3 8,3 3,0 6,-1 9,-4 2,-3 4,-7 4,-13 0,-5 -1,-9 -4,-12 -2,-3 -5,-4 -9,-4 -5,0 -9,2 -13,6l-13 -2 8 -44 43 0 0 15 -31 0 -3 15c4,-2 7,-3 11,-3 7,0 13,3 18,8 5,5 8,12 8,21 0,7 -2,13 -6,19 -6,8 -13,11 -23,11 -8,0 -14,-2 -19,-6 -5,-4 -8,-10 -9,-17z"/>
  <polygon class="fil147" points="468,146 498,163 493,128 510,112 517,104 487,100 483,99 475,82 468,68 452,99 418,104 443,128 437,163 448,157 "/>
  <polygon class="fil148" points="468,133 483,141 480,124 489,116 493,112 478,110 475,109 471,101 468,93 460,109 442,112 455,124 452,141 458,138 "/>
  <polygon class="fil149" points="526,114 517,104 510,112 493,128 498,163 468,146 448,157 437,163 446,173 477,156 510,173 504,136 "/>
  <polygon class="fil149" points="483,99 487,100 487,100 493,100 482,78 468,68 475,82 "/>
  <path class="fil150" d="M442 82c-10,-10 -22,-21 -36,-34 14,13 27,23 37,33l-1 1z"/>
  <path class="fil151" d="M400 159c12,-5 22,-10 31,-13l1 2c-9,3 -19,7 -31,12z"/>
  <path class="fil150" d="M485 238c0,-23 -1,-43 -2,-59l2 0c0,16 -1,36 -1,59z"/>
  <path class="fil150" d="M514 73l-1 -1 0 0c5,-7 10,-15 16,-25 -6,10 -10,18 -15,25z"/>
  <path class="fil150" d="M575 153c-15,-5 -27,-9 -38,-12l1 -2c11,4 23,9 37,14z"/>
  <path class="fil150" d="M531 104l-1 -2c13,-5 29,-11 46,-18 -18,7 -33,14 -45,20z"/>
  <path class="fil150" d="M543 190c-10,-8 -18,-15 -25,-22l1 -1c7,6 15,14 24,23z"/>
  <path class="fil150" d="M435 236c3,-9 7,-18 9,-26 1,-2 3,-4 4,-6 -4,10 -8,20 -13,32zm20 -48c1,-2 1,-4 2,-6l1 0c-1,2 -2,4 -3,6z"/>
  <path class="fil151" d="M445 211c4,-11 8,-21 11,-30l2 1c-1,2 -1,4 -2,6 -2,5 -4,11 -7,16 -1,2 -2,4 -4,6z"/>
  <path class="fil150" d="M466 70c-1,-8 -3,-17 -5,-28 2,10 4,18 6,26l-1 2z"/>
  <path class="fil152" d="M467 71c0,0 0,-1 0,-1l1 -2c0,1 0,2 1,3l0 0 -1 0z"/>
  <path class="fil151" d="M421 127c-11,0 -25,-1 -40,-1 0,0 1,0 1,0 15,0 28,0 39,0l0 2z"/>
  <path class="fil153" d="M242 1813c-6,0 -11,-2 -14,-6 -4,-4 -6,-9 -6,-16 0,-7 2,-13 6,-17 4,-4 9,-6 15,-6 5,0 10,2 13,5 2,2 4,5 5,8l-9 2c-1,-2 -2,-4 -3,-5 -2,-1 -4,-2 -6,-2 -3,0 -6,1 -8,4 -2,2 -3,6 -3,11 0,6 1,10 3,12 2,2 5,4 8,4 2,0 4,-1 6,-2 2,-2 3,-4 4,-7l9 3c-1,5 -4,8 -7,11 -3,2 -7,4 -12,4z"/>
  <polygon class="fil153" points="303,1812 294,1812 294,1793 277,1793 277,1812 268,1812 268,1768 277,1768 277,1786 294,1786 294,1768 303,1768 "/>
  <path class="fil153" d="M332 1813c-7,0 -12,-2 -16,-6 -4,-4 -6,-10 -6,-17 0,-5 1,-8 2,-11 1,-2 2,-4 4,-6 2,-2 4,-3 6,-4 3,-1 6,-2 10,-2 7,0 12,2 16,6 4,4 6,10 6,17 0,7 -2,13 -6,17 -4,4 -9,6 -16,6zm0 -38c-4,0 -7,1 -9,4 -2,3 -3,6 -3,11 0,5 1,9 3,11 2,3 5,4 9,4 4,0 6,-1 9,-4 2,-3 3,-6 3,-12 0,-5 -1,-9 -3,-11 -2,-2 -5,-4 -9,-4z"/>
  <path class="fil153" d="M380 1813c-7,0 -12,-2 -16,-6 -4,-4 -6,-10 -6,-17 0,-5 1,-8 2,-11 1,-2 2,-4 4,-6 2,-2 4,-3 6,-4 3,-1 6,-2 10,-2 7,0 12,2 16,6 4,4 6,10 6,17 0,7 -2,13 -6,17 -4,4 -9,6 -16,6zm0 -38c-4,0 -7,1 -9,4 -2,3 -3,6 -3,11 0,5 1,9 3,11 2,3 5,4 9,4 4,0 6,-1 9,-4 2,-3 3,-6 3,-12 0,-5 -1,-9 -3,-11 -2,-2 -5,-4 -9,-4z"/>
  <path class="fil153" d="M424 1813c-6,0 -10,-1 -13,-4 -3,-3 -5,-6 -5,-11l9 -1c1,3 2,5 3,6 2,1 4,2 6,2 3,0 5,-1 6,-2 1,-1 2,-3 2,-4l-1 -3c-1,-1 -2,-1 -3,-2 -1,0 -3,-1 -7,-2 -5,-1 -8,-3 -10,-4 -3,-2 -4,-5 -4,-9 0,-2 1,-4 2,-6 1,-2 3,-3 6,-4 2,-1 5,-2 9,-2 6,0 10,1 13,4 3,2 4,6 4,10l-9 0c0,-2 -1,-4 -2,-5 -1,-1 -3,-1 -6,-1 -3,0 -5,1 -6,2l-1 3 1 3c1,1 4,2 8,3 4,1 8,2 10,3 2,1 4,3 5,4 1,2 2,4 2,7 0,3 -1,5 -2,7 -1,2 -3,4 -6,5 -3,1 -6,2 -10,2z"/>
  <polygon class="fil153" points="449,1812 458,1812 458,1768 449,1768 "/>
  <polygon class="fil153" points="501,1812 492,1812 475,1784 475,1812 466,1812 466,1768 475,1768 493,1798 493,1768 501,1768 "/>
  <path class="fil153" d="M532 1813c-5,0 -9,-1 -12,-3 -3,-2 -6,-5 -8,-8 -2,-4 -3,-8 -3,-12 0,-5 1,-9 3,-12 2,-4 5,-6 8,-8 3,-1 6,-2 11,-2 5,0 10,1 13,3 3,2 5,5 6,10l-9 2c-1,-2 -2,-4 -4,-5 -2,-1 -4,-2 -6,-2 -4,0 -7,1 -9,4 -2,2 -3,6 -3,11 0,5 1,9 3,12 2,3 5,4 9,4 2,0 4,0 6,-1 2,-1 3,-2 5,-3l0 -6 -10 0 0 -7 19 0 0 18c-2,2 -5,3 -8,5 -4,1 -7,2 -11,2z"/>
  <path class="fil153" d="M261 1893l-10 0 -4 -10 -18 0 -4 10 -9 0 17 -44 9 0 18 44zm-22 -34l-6 16 12 0 -6 -16z"/>
  <path class="fil153" d="M299 1894c-6,0 -11,-2 -14,-6 -4,-4 -6,-9 -6,-16 0,-7 2,-13 6,-17 4,-4 9,-6 15,-6 5,0 10,2 13,5 2,2 4,5 5,8l-9 2c-1,-2 -2,-4 -3,-5 -2,-1 -4,-2 -6,-2 -3,0 -6,1 -8,4 -2,2 -3,6 -3,11 0,6 1,10 3,12 2,2 5,4 8,4 2,0 4,-1 6,-2 2,-2 3,-4 4,-7l9 3c-1,5 -4,8 -7,11 -3,2 -7,4 -12,4z"/>
  <path class="fil153" d="M365 1893l-10 0 -4 -10 -18 0 -4 10 -9 0 17 -44 9 0 18 44zm-22 -34l-6 16 12 0 -6 -16z"/>
  <polygon class="fil153" points="404,1893 395,1893 378,1864 378,1893 369,1893 369,1849 378,1849 396,1878 396,1849 404,1849 "/>
  <path class="fil153" d="M431 1893l-17 0 0 -44 16 0c4,0 6,0 8,1 3,1 5,2 7,4 2,2 3,4 4,7 1,3 1,6 1,10 0,4 0,7 -1,9 -1,3 -3,6 -5,8 -2,2 -4,3 -6,4 -2,1 -5,1 -8,1zm-8 -37l0 29 7 0c2,0 4,0 5,0 1,0 3,-1 4,-2 1,-1 2,-2 2,-4 1,-2 1,-5 1,-8 0,-3 0,-6 -1,-8 -1,-2 -1,-3 -3,-4 -1,-1 -2,-2 -4,-2 -1,0 -4,0 -7,0l-4 0z"/>
  <polygon class="fil153" points="458,1893 467,1893 467,1849 458,1849 "/>
  <path class="fil153" d="M492 1893l-17 0 0 -44 16 0c4,0 6,0 8,1 3,1 5,2 7,4 2,2 3,4 4,7 1,3 1,6 1,10 0,4 0,7 -1,9 -1,3 -3,6 -5,8 -2,2 -4,3 -6,4 -2,1 -5,1 -8,1zm-8 -37l0 29 7 0c2,0 4,0 5,0 1,0 3,-1 4,-2 1,-1 2,-2 2,-4 1,-2 1,-5 1,-8 0,-3 0,-6 -1,-8 -1,-2 -1,-3 -3,-4 -1,-1 -2,-2 -4,-2 -1,0 -4,0 -7,0l-4 0z"/>
  <path class="fil153" d="M560 1893l-10 0 -4 -10 -18 0 -4 10 -9 0 17 -44 9 0 18 44zm-22 -34l-6 16 12 0 -6 -16z"/>
  <polygon class="fil153" points="579,1893 570,1893 570,1856 557,1856 557,1849 592,1849 592,1856 579,1856 "/>
  <polygon class="fil153" points="631,1893 597,1893 597,1849 630,1849 630,1856 606,1856 606,1866 629,1866 629,1874 606,1874 606,1886 631,1886 "/>
 </g>
</svg>
