<?xml version="1.0" encoding="UTF-8"?>
<!DOCTYPE svg PUBLIC "-//W3C//DTD SVG 1.1//EN" "http://www.w3.org/Graphics/SVG/1.1/DTD/svg11.dtd">
<!-- Creator: CorelDRAW X6 -->
<svg xmlns="http://www.w3.org/2000/svg" xml:space="preserve" width="11.6806in" height="8.26389in" version="1.1" style="shape-rendering:geometricPrecision; text-rendering:geometricPrecision; image-rendering:optimizeQuality; fill-rule:evenodd; clip-rule:evenodd"
viewBox="0 0 11681 8264"
 xmlns:xlink="http://www.w3.org/1999/xlink">
 <defs>
  <style type="text/css">
   <![CDATA[
    .fil0 {fill:#20AAA0;fill-rule:nonzero}
    .fil6 {fill:#36ACE2;fill-rule:nonzero}
    .fil3 {fill:#424242;fill-rule:nonzero}
    .fil9 {fill:#5B524D;fill-rule:nonzero}
    .fil5 {fill:#838485;fill-rule:nonzero}
    .fil2 {fill:#9A9B9C;fill-rule:nonzero}
    .fil8 {fill:#C7B49C;fill-rule:nonzero}
    .fil7 {fill:#C7B8A5;fill-rule:nonzero}
    .fil1 {fill:#CECDCC;fill-rule:nonzero}
    .fil4 {fill:#F1F3F4;fill-rule:nonzero}
    .fil11 {fill:#F26D36;fill-rule:nonzero}
    .fil10 {fill:#F47C47;fill-rule:nonzero}
   ]]>
  </style>
 </defs>
 <g id="Layer_x0020_1">
  <metadata id="CorelCorpID_0Corel-Layer"/>
  <polygon class="fil0" points="0,8264 11693,8264 11693,-4 0,-4 "/>
  <polygon class="fil1" points="7436,5813 4261,5816 4257,1828 7432,1825 "/>
  <polygon class="fil2" points="7059,3288 4618,3290 4617,3133 7059,3131 "/>
  <polygon class="fil3" points="7059,3614 4618,3616 4618,3459 7059,3457 "/>
  <polygon class="fil4" points="7060,3940 4618,3942 4618,3785 7059,3782 "/>
  <polygon class="fil5" points="7060,4265 4619,4268 4618,4111 7060,4108 "/>
  <polygon class="fil5" points="7060,4591 4619,4594 4619,4437 7060,4434 "/>
  <polygon class="fil4" points="7061,4917 4619,4920 4619,4762 7060,4760 "/>
  <polygon class="fil3" points="7061,5243 4619,5245 4619,5088 7061,5086 "/>
  <polygon class="fil2" points="7061,5569 4620,5571 4620,5414 7061,5412 "/>
  <path class="fil1" d="M8099 3821c0,40 -1,80 -3,120 -6,106 -19,211 -39,313 -7,38 -16,76 -25,114 -16,62 -34,124 -55,184 -8,24 -17,48 -26,72 -9,24 -19,47 -29,71 -44,105 -97,206 -156,303l-102 152 -2 3c-26,36 -54,71 -82,105 -47,57 -97,111 -149,163 -92,91 -192,175 -298,249 -157,110 -329,200 -512,268 -89,33 -180,60 -273,81l0 0c-162,37 -330,56 -502,56 -172,0 -341,-20 -502,-56 -92,-21 -181,-48 -269,-80 -183,-67 -355,-157 -512,-267 -107,-74 -206,-157 -299,-248 -21,-21 -42,-42 -62,-63 -20,-22 -40,-43 -59,-66 -19,-22 -38,-45 -56,-68 -18,-23 -36,-46 -54,-70l-130 -197 -1 -2c-12,-21 -24,-42 -36,-63 -12,-21 -23,-43 -34,-64 -11,-22 -21,-44 -32,-66 -10,-22 -20,-44 -30,-67 -14,-34 -28,-68 -40,-102 -89,-241 -137,-502 -137,-773 0,-880 507,-1643 1244,-2014l2014 -2c135,68 263,148 380,241l148 127c97,90 185,188 265,294 11,15 23,30 34,46 55,77 106,157 151,241 172,318 270,682 270,1068z"/>
  <path class="fil3" d="M4759 3010c-168,0 -266,-108 -266,-277 0,-181 107,-285 269,-285 57,0 106,12 140,29l21 -73c-24,-12 -78,-31 -164,-31 -214,0 -361,147 -360,363 0,227 147,349 342,349 84,0 150,-17 182,-33l-18 -71c-36,18 -91,29 -146,29z"/>
  <path class="fil3" d="M5448 2383l-116 341c-31,90 -59,177 -79,257l-2 0c-18,-81 -44,-165 -74,-258l-108 -340 -96 0 226 691 98 0 246 -691 -95 0z"/>
  <polygon class="fil4" points="7232,2046 6603,2046 6262,2047 6263,3444 7381,3443 7381,3244 7380,2652 7380,2172 "/>
  <path class="fil6" d="M7381 3244l0 199 -1118 1 0 -234c25,-23 55,-39 89,-47 0,0 1,0 1,0 29,-7 59,-14 88,-21 42,-10 83,-19 125,-29 21,-5 42,-10 63,-15 10,-2 21,-5 31,-7 6,-1 13,-3 19,-4 5,-1 10,-2 15,-3 6,-1 12,-2 18,-3 7,-1 14,-2 21,-3 6,-1 12,-2 18,-2 2,0 3,0 5,-1 5,-1 11,-1 16,-1 10,-1 19,-1 29,-1 57,1 112,15 167,29 1,0 1,0 2,0 29,7 59,15 88,22 42,11 83,21 124,32 21,5 42,11 63,16 12,3 25,7 37,10 39,11 74,33 101,63z"/>
  <polygon class="fil7" points="6795,2800 6876,2800 6973,3121 6653,3121 6730,2800 "/>
  <path class="fil7" d="M7057 3124c-23,40 -110,171 -257,171 -145,0 -215,-136 -234,-181 21,-5 42,-10 63,-15 56,-13 114,-27 172,-26 57,1 113,15 168,29 29,7 59,15 88,22z"/>
  <path class="fil8" d="M6521 2503l-1 294c-1,281 566,283 567,3l2 -374 -54 -155 -280 -1 -234 234z"/>
  <path class="fil9" d="M7080 2278c3,5 5,10 6,15 3,10 3,20 3,30 0,34 0,69 -1,103 -27,-48 -67,-88 -107,-126 -19,26 -49,40 -80,47 -31,7 -62,9 -94,14 -106,18 -200,80 -288,142 -3,-60 -2,-120 1,-180 1,-13 0,-29 4,-42 3,-11 11,-23 18,-32 13,-19 31,-37 52,-49 30,-20 65,-32 100,-41 66,-16 136,-19 203,-3 66,16 129,52 171,106 4,5 8,10 11,15z"/>
  <polygon class="fil2" points="7766,4119 3901,4123 3901,3874 7766,3871 "/>
  <polygon class="fil3" points="7767,4635 3901,4639 3901,4390 7766,4387 "/>
  <polygon class="fil4" points="7767,4996 7767,4903 7443,4903 4252,4906 3902,4906 3902,4956 4033,5155 4454,5154 7242,5152 7663,5152 "/>
  <path class="fil5" d="M7432 5419c-92,91 -192,175 -298,249l-735 1 -1102 1 -734 1c-107,-74 -207,-157 -299,-248l507 -1 2154 -2 507 0z"/>
  <polygon class="fil1" points="10172,5311 7798,5313 7795,2331 10169,2328 "/>
  <path class="fil3" d="M8587 2881c-15,8 -46,16 -86,16 -92,0 -161,-58 -161,-165 0,-102 69,-171 170,-172 41,0 66,9 77,14l-10 34c-16,-8 -39,-14 -66,-14 -76,0 -127,49 -127,135 0,80 46,131 125,131 26,0 52,-5 69,-14l9 33z"/>
  <path class="fil3" d="M8717 2891l-107 -326 46 0 51 161c14,44 26,84 35,122l1 0c9,-38 23,-79 37,-122l55 -161 45 0 -116 326 -46 0z"/>
  <polygon class="fil2" points="9890,3422 8065,3424 8064,3306 9890,3305 "/>
  <polygon class="fil2" points="9890,3184 8064,3185 8064,3068 9890,3066 "/>
  <polygon class="fil3" points="9890,3666 8065,3668 8065,3550 9890,3548 "/>
  <polygon class="fil4" points="9891,3910 8065,3911 8065,3794 9891,3792 "/>
  <polygon class="fil5" points="9891,4153 8065,4155 8065,4037 9891,4036 "/>
  <polygon class="fil5" points="9891,4397 8066,4399 8065,4281 9891,4279 "/>
  <polygon class="fil4" points="9891,4641 8066,4642 8066,4525 9891,4523 "/>
  <polygon class="fil3" points="9892,4884 8066,4886 8066,4769 9891,4767 "/>
  <polygon class="fil2" points="9892,5128 8066,5130 8066,5012 9892,5011 "/>
  <polygon class="fil4" points="9748,2451 9749,2946 9353,2947 9353,2452 "/>
  <polygon class="fil1" points="3898,5311 1524,5313 1521,2331 3895,2328 "/>
  <path class="fil3" d="M2313 2881c-15,8 -46,16 -86,16 -92,0 -161,-58 -161,-165 0,-102 69,-171 170,-172 41,0 66,9 77,14l-10 34c-16,-8 -39,-14 -66,-14 -76,0 -127,49 -127,135 0,80 46,131 125,131 26,0 52,-5 69,-14l9 33z"/>
  <path class="fil3" d="M2443 2891l-107 -326 46 0 51 161c14,44 26,84 35,122l1 0c9,-38 23,-79 37,-122l55 -161 45 0 -116 326 -46 0z"/>
  <polygon class="fil2" points="3616,3422 1790,3424 1790,3306 3616,3305 "/>
  <polygon class="fil2" points="3616,3184 1790,3185 1790,3068 3616,3066 "/>
  <polygon class="fil3" points="3616,3666 1791,3668 1791,3550 3616,3548 "/>
  <polygon class="fil4" points="3617,3910 1791,3911 1791,3794 3616,3792 "/>
  <polygon class="fil5" points="3617,4153 1791,4155 1791,4037 3617,4036 "/>
  <polygon class="fil5" points="3617,4397 1791,4399 1791,4281 3617,4279 "/>
  <polygon class="fil4" points="3617,4641 1792,4642 1792,4525 3617,4523 "/>
  <polygon class="fil3" points="3617,4884 1792,4886 1792,4769 3617,4767 "/>
  <polygon class="fil2" points="3618,5128 1792,5130 1792,5012 3618,5011 "/>
  <polygon class="fil4" points="3474,2451 3475,2946 3079,2947 3078,2452 "/>
  <polygon class="fil1" points="11693,4713 11693,2702 10305,2703 10307,4940 11693,4939 "/>
  <path class="fil3" d="M10841 3101c-59,0 -94,-38 -94,-98 0,-64 38,-101 95,-101 20,0 38,4 49,10l8 -26c-8,-4 -28,-11 -58,-11 -76,0 -128,52 -128,129 0,80 52,124 121,124 30,0 53,-6 65,-12l-7 -25c-13,6 -32,10 -52,10z"/>
  <path class="fil3" d="M11085 2879l-41 121c-11,32 -21,63 -28,91l-1 0c-7,-29 -16,-58 -26,-92l-38 -120 -34 0 80 245 35 0 87 -245 -34 0z"/>
  <polygon class="fil2" points="11693,3434 11693,3522 10507,3523 10507,3435 "/>
  <polygon class="fil2" points="11693,3255 11693,3343 10507,3344 10507,3256 "/>
  <polygon class="fil3" points="11693,3617 11693,3705 10507,3706 10507,3618 "/>
  <polygon class="fil4" points="11693,3799 11693,3887 10508,3889 10507,3800 "/>
  <polygon class="fil5" points="11693,3982 11693,4070 10508,4071 10508,3983 "/>
  <polygon class="fil5" points="11693,4165 11693,4253 10508,4254 10508,4166 "/>
  <polygon class="fil4" points="11693,4348 11693,4436 10508,4437 10508,4349 "/>
  <polygon class="fil3" points="11693,4619 10508,4620 10508,4532 11693,4530 "/>
  <polygon class="fil2" points="11693,4801 10508,4803 10508,4714 11693,4713 "/>
  <polygon class="fil4" points="11693,3165 11473,3165 11473,2794 11693,2794 "/>
  <polygon class="fil1" points="0,4802 0,4940 1388,4938 1386,2701 0,2703 "/>
  <path class="fil3" d="M141 3101c-60,0 -94,-38 -94,-98 0,-64 38,-101 95,-101 20,0 37,4 49,10l8 -26c-8,-4 -28,-11 -58,-11 -76,0 -128,52 -128,129 0,80 52,124 121,124 30,0 53,-6 65,-12l-7 -25c-13,6 -32,10 -52,10z"/>
  <path class="fil3" d="M385 2879l-41 121c-11,32 -21,63 -28,91l-1 0c-7,-29 -16,-58 -26,-92l-38 -120 -34 0 80 245 35 0 87 -245 -34 0z"/>
  <polygon class="fil2" points="1177,3434 1177,3522 0,3523 0,3435 "/>
  <polygon class="fil2" points="1176,3343 0,3344 0,3256 1176,3255 "/>
  <polygon class="fil3" points="1177,3705 0,3706 0,3618 1177,3616 "/>
  <polygon class="fil4" points="1177,3887 0,3889 0,3800 1177,3799 "/>
  <polygon class="fil5" points="1177,4070 0,4071 0,3983 1177,3982 "/>
  <polygon class="fil5" points="1177,4165 1177,4253 0,4254 0,4166 "/>
  <polygon class="fil4" points="1178,4436 0,4437 0,4349 1177,4348 "/>
  <polygon class="fil3" points="0,4620 1178,4618 1177,4530 0,4531 "/>
  <polygon class="fil2" points="0,4802 1178,4801 1178,4713 0,4714 "/>
  <polygon class="fil4" points="1070,2794 1071,3165 774,3165 773,2794 "/>
  <path class="fil10" d="M9864 7279l-2268 -2268c-57,-57 -150,-57 -208,0l-380 380c-57,57 -57,151 0,208l2268 2268c57,57 151,57 208,0l380 -380c57,-57 57,-150 0,-208z"/>
  <path class="fil11" d="M7766 4005l0 2c-4,38 -8,75 -14,113 -14,91 -35,181 -61,267 -26,86 -58,169 -96,249 -44,93 -95,183 -152,267 -60,89 -127,172 -201,249 -95,100 -202,190 -317,268 -160,108 -336,193 -526,249 -175,52 -361,80 -553,80 -191,0 -375,-28 -549,-79 -189,-56 -366,-141 -526,-248 -115,-77 -222,-167 -317,-267 -74,-77 -141,-160 -202,-248 -58,-84 -109,-174 -153,-267 -37,-80 -70,-163 -96,-249 -27,-87 -47,-176 -62,-267 -13,-81 -20,-164 -23,-249 0,-18 -1,-36 -1,-54 0,-1065 863,-1928 1928,-1928 268,0 524,55 756,154l0 0c69,29 136,63 200,100l1 0c66,38 128,79 188,124 0,0 0,0 0,0l1 0c19,14 37,28 56,43l0 0c13,11 27,22 40,33 108,91 205,194 291,306 248,324 395,729 395,1169 0,63 -3,123 -9,184zm63 -1252c-45,-84 -96,-164 -151,-241 -11,-15 -22,-31 -34,-46 -80,-106 -169,-204 -265,-294 -48,-44 -97,-87 -148,-127 -118,-92 -245,-173 -380,-241 -302,-152 -644,-237 -1005,-237 -362,0 -705,86 -1009,239 -737,371 -1244,1134 -1244,2014 0,272 48,532 137,773 13,34 26,68 40,102 10,22 19,45 30,67 10,22 21,44 32,66 11,22 22,43 34,64 12,21 23,42 36,63 0,0 0,0 0,0 0,1 1,1 1,2 40,68 83,134 130,197 17,24 35,47 54,70 18,23 37,46 56,68 19,22 39,44 59,66 20,21 41,43 62,63l0 0c92,91 192,174 299,248 157,110 329,200 512,267 87,32 177,59 269,80 162,37 330,56 502,56 173,0 341,-20 502,-56l0 0c93,-21 184,-48 273,-81 183,-67 355,-158 512,-268 107,-74 206,-158 298,-249 52,-52 102,-106 149,-163 28,-34 55,-69 82,-105 1,-1 1,-2 2,-3 36,-49 70,-100 102,-152 59,-96 111,-197 156,-303 10,-23 19,-47 29,-71 9,-24 18,-48 26,-72 21,-60 39,-122 55,-184 9,-38 18,-76 25,-114 20,-102 33,-206 39,-313 2,-40 3,-80 3,-120 0,-386 -98,-750 -269,-1068z"/>
 </g>
</svg>
